<svg id="图层_1" data-name="图层 1" xmlns="http://www.w3.org/2000/svg" xmlns:xlink="http://www.w3.org/1999/xlink" viewBox="0 0 1000 444.3594"><defs><style>.cls-1,.cls-14,.cls-15,.cls-16,.cls-18,.cls-2,.cls-21,.cls-3,.cls-4,.cls-40,.cls-43,.cls-44,.cls-45,.cls-48,.cls-5,.cls-55,.cls-57,.cls-59,.cls-6,.cls-60,.cls-61,.cls-7,.cls-8{fill:none;}.cls-1,.cls-2,.cls-3,.cls-5,.cls-7,.cls-8{clip-rule:evenodd;}.cls-2{clip-path:url(#clip-path);}.cls-3{clip-path:url(#clip-path-2);}.cls-5{clip-path:url(#clip-path-3);}.cls-13,.cls-6{fill-rule:evenodd;}.cls-7{clip-path:url(#clip-path-4);}.cls-8{clip-path:url(#clip-path-5);}.cls-22,.cls-9{fill:#ffeef2;}.cls-10{clip-path:url(#clip-path-6);}.cls-11{clip-path:url(#clip-path-7);}.cls-12{fill:#fff;}.cls-14,.cls-15,.cls-16,.cls-18,.cls-21,.cls-22,.cls-25,.cls-26,.cls-27,.cls-28,.cls-29,.cls-30,.cls-31,.cls-32,.cls-33,.cls-34,.cls-36,.cls-40,.cls-43,.cls-44,.cls-45,.cls-48,.cls-49,.cls-59,.cls-60,.cls-61,.cls-65{stroke:#000;}.cls-14{stroke-width:0.3401px;}.cls-15{stroke-width:1.2755px;}.cls-16{stroke-width:0.6378px;}.cls-17,.cls-62,.cls-63{font-size:12px;}.cls-17,.cls-20,.cls-62,.cls-63{font-family:ArialMT, Arial;}.cls-18,.cls-22,.cls-25,.cls-26,.cls-27,.cls-28,.cls-29,.cls-30,.cls-31,.cls-32,.cls-33,.cls-34,.cls-36,.cls-49,.cls-65{stroke-miterlimit:10;}.cls-19,.cls-34{fill:#fff2da;}.cls-20{font-size:14px;}.cls-21,.cls-55,.cls-57,.cls-59,.cls-60,.cls-61{stroke-linejoin:round;}.cls-23{letter-spacing:-0.0742em;}.cls-24{letter-spacing:-0.0181em;}.cls-25{fill:#ffdde4;}.cls-26{fill:#ffa3b2;}.cls-27{fill:#ff2a2a;}.cls-28{fill:#5b9cd3;}.cls-29{fill:#b4d0e7;}.cls-30{fill:#e8f1f8;}.cls-31{fill:#ffe5b4;}.cls-32{fill:#ffbb78;}.cls-33{fill:#ff8c00;}.cls-35{letter-spacing:-0.1108em;}.cls-36{fill:#f2f2f2;}.cls-37,.cls-65{fill:#f4f8fc;}.cls-38{clip-path:url(#clip-path-8);}.cls-39{clip-path:url(#clip-path-9);}.cls-40{stroke-width:0.9755px;}.cls-41{clip-path:url(#clip-path-10);}.cls-42{clip-path:url(#clip-path-11);}.cls-43{stroke-width:0.2699px;}.cls-44{stroke-width:1.0497px;}.cls-45{stroke-width:0.5398px;}.cls-46{clip-path:url(#clip-path-12);}.cls-47{clip-path:url(#clip-path-13);}.cls-48{stroke-width:0.8197px;}.cls-49{fill:#aee6b6;}.cls-50{letter-spacing:-0.0371em;}.cls-51{fill:#e9daef;}.cls-52{clip-path:url(#clip-path-14);}.cls-53{clip-path:url(#clip-path-15);}.cls-54{fill:#8e44ad;}.cls-54,.cls-55{opacity:0.1961;}.cls-55,.cls-57{stroke:#8e44ad;}.cls-55,.cls-61{stroke-width:0.4535px;}.cls-56{clip-path:url(#clip-path-16);}.cls-57{stroke-linecap:square;stroke-width:2.2675px;}.cls-58{clip-path:url(#clip-path-17);}.cls-59{stroke-width:0.3628px;}.cls-60{stroke-linecap:round;stroke-width:0.907px;}.cls-62{letter-spacing:-0.0021em;}.cls-63{letter-spacing:-0.0001em;}.cls-64{letter-spacing:0.2501em;}</style><clipPath id="clip-path"><polygon class="cls-1" points="129.364 306.317 326 306.317 326 174.122 129.364 174.122 129.364 306.317 129.364 306.317"/></clipPath><clipPath id="clip-path-2"><polygon class="cls-1" points="298.272 427 372.086 427 372.086 370.312 298.272 370.312 298.272 427 298.272 427"/></clipPath><clipPath id="clip-path-3"><polygon class="cls-1" points="905.5 426.692 1054 426.692 1054 288.498 905.5 288.498 905.5 426.692 905.5 426.692"/></clipPath><clipPath id="clip-path-4"><polygon class="cls-1" points="77.74 423 170.772 423 170.772 372.398 77.74 372.398 77.74 423 77.74 423"/></clipPath><clipPath id="clip-path-5"><polygon class="cls-1" points="182.752 425.576 285 425.576 285 372.211 182.752 372.211 182.752 425.576 182.752 425.576"/></clipPath><clipPath id="clip-path-6" transform="translate(-71 -22.8262)"><polygon class="cls-2" points="129.364 174.122 326 174.122 326 306.317 129.364 306.317 129.364 174.122 129.364 174.122"/></clipPath><clipPath id="clip-path-7" transform="translate(-71 -22.8262)"><polygon class="cls-4" points="129.364 306.316 326 306.316 326 174.122 129.364 174.122 129.364 306.316 129.364 306.316"/></clipPath><clipPath id="clip-path-8" transform="translate(-71 -22.8262)"><polygon class="cls-7" points="77.74 372.398 170.772 372.398 170.772 423 77.74 423 77.74 372.398 77.74 372.398"/></clipPath><clipPath id="clip-path-9" transform="translate(-71 -22.8262)"><polygon class="cls-4" points="77.74 423 170.772 423 170.772 372.398 77.74 372.398 77.74 423 77.74 423"/></clipPath><clipPath id="clip-path-10" transform="translate(-71 -22.8262)"><polygon class="cls-8" points="182.752 372.211 285 372.211 285 425.576 182.752 425.576 182.752 372.211 182.752 372.211"/></clipPath><clipPath id="clip-path-11" transform="translate(-71 -22.8262)"><polygon class="cls-4" points="182.752 425.576 285 425.576 285 372.211 182.752 372.211 182.752 425.576 182.752 425.576"/></clipPath><clipPath id="clip-path-12" transform="translate(-71 -22.8262)"><polygon class="cls-3" points="298.272 370.312 372.086 370.312 372.086 427 298.272 427 298.272 370.312 298.272 370.312"/></clipPath><clipPath id="clip-path-13" transform="translate(-71 -22.8262)"><polygon class="cls-4" points="298.272 427 372.086 427 372.086 370.312 298.272 370.312 298.272 427 298.272 427"/></clipPath><clipPath id="clip-path-14" transform="translate(-71 -22.8262)"><polygon class="cls-5" points="905.5 288.498 1054 288.498 1054 426.692 905.5 426.692 905.5 288.498 905.5 288.498"/></clipPath><clipPath id="clip-path-15" transform="translate(-71 -22.8262)"><polygon class="cls-4" points="905.5 426.692 1054 426.692 1054 288.498 905.5 288.498 905.5 426.692 905.5 426.692"/></clipPath><clipPath id="clip-path-16" transform="translate(-71 -22.8262)"><polygon class="cls-1" points="924.056 409.743 1040.914 409.743 1040.914 300.99 924.056 300.99 924.056 409.743 924.056 409.743"/></clipPath><clipPath id="clip-path-17" transform="translate(-71 -22.8262)"><polygon class="cls-1" points="905.895 426.644 1053.942 426.644 1053.942 288.865 905.895 288.865 905.895 426.644 905.895 426.644"/></clipPath></defs><rect class="cls-9" x="35" y="117.8297" width="240" height="28.6882"/><g class="cls-10"><g class="cls-11"><polygon class="cls-12" points="51.871 112.92 261.506 112.92 261.506 322.389 51.871 322.389 51.871 112.92 51.871 112.92"/><polygon class="cls-13" points="176.436 223.562 176.436 203.872 179.371 204.081 176.436 223.562 176.436 223.562"/><polygon class="cls-14" points="176.436 223.562 176.436 203.872 179.371 204.081 176.436 223.562 176.436 223.562"/><line class="cls-15" x1="176.4362" y1="223.5616" x2="160.4201" y2="212.2084"/><line class="cls-15" x1="160.4201" y1="212.2084" x2="142.5591" y2="220.4195"/><polygon class="cls-13" points="142.559 220.42 124.866 209.82 126.501 209.108 142.559 220.42 142.559 220.42"/><polygon class="cls-14" points="142.559 220.42 124.866 209.82 126.501 209.108 142.559 220.42 142.559 220.42"/><polygon class="cls-13" points="142.559 220.42 126.501 209.108 126.669 207.307 142.559 220.42 142.559 220.42"/><polygon class="cls-14" points="142.559 220.42 126.501 209.108 126.669 207.307 142.559 220.42 142.559 220.42"/><line class="cls-15" x1="126.501" y1="209.1082" x2="128.3039" y2="189.5438"/><line class="cls-15" x1="123.7338" y1="207.1392" x2="125.2013" y2="190.9682"/><line class="cls-15" x1="128.3039" y1="189.5438" x2="112.2458" y2="178.1906"/><line class="cls-15" x1="112.2458" y1="178.1906" x2="94.3849" y2="186.4017"/><line class="cls-15" x1="111.9523" y1="181.584" x2="97.194" y2="188.3707"/><line class="cls-15" x1="94.3849" y1="186.4017" x2="81.094" y2="177.0176"/><line class="cls-15" x1="75.6015" y1="173.1214" x2="62.3106" y2="163.7372"/><line class="cls-15" x1="74.5953" y1="177.8135" x2="68.2643" y2="186.7788"/><line class="cls-15" x1="77.0271" y1="179.5312" x2="70.6541" y2="188.4964"/><line class="cls-15" x1="82.0164" y1="172.4511" x2="88.3474" y2="163.4859"/><line class="cls-15" x1="79.6265" y1="170.7335" x2="85.9575" y2="161.7682"/><line class="cls-15" x1="94.3849" y1="186.4017" x2="92.582" y2="205.9662"/><line class="cls-15" x1="92.582" y1="205.9662" x2="108.6401" y2="217.3194"/><line class="cls-15" x1="95.6846" y1="204.5417" x2="108.9755" y2="213.926"/><line class="cls-15" x1="142.5591" y1="220.4195" x2="140.7563" y2="239.9839"/><line class="cls-15" x1="140.7563" y1="239.9839" x2="122.8953" y2="248.1952"/><line class="cls-15" x1="140.4208" y1="243.3774" x2="125.6625" y2="250.1642"/><line class="cls-15" x1="122.8953" y1="248.1952" x2="106.8372" y2="236.8838"/><line class="cls-15" x1="106.8372" y1="236.8838" x2="88.9763" y2="245.095"/><line class="cls-15" x1="88.9763" y1="245.095" x2="87.1734" y2="264.6594"/><line class="cls-15" x1="87.3411" y1="262.9418" x2="72.2054" y2="269.938"/><line class="cls-15" x1="88.5989" y1="265.623" x2="73.4213" y2="272.6193"/><line class="cls-15" x1="87.1734" y1="264.6594" x2="103.2315" y2="275.9707"/><line class="cls-15" x1="103.2315" y1="275.9707" x2="121.0924" y2="267.7596"/><line class="cls-15" x1="103.5669" y1="272.6193" x2="118.3253" y2="265.7906"/><line class="cls-15" x1="121.0924" y1="267.7596" x2="137.1505" y2="279.1128"/><line class="cls-15" x1="137.1505" y1="279.1128" x2="155.0115" y2="270.9016"/><line class="cls-15" x1="155.0115" y1="270.9016" x2="156.8143" y2="251.3372"/><line class="cls-15" x1="156.8143" y1="251.3372" x2="174.6333" y2="243.126"/><line class="cls-15" x1="174.6333" y1="243.126" x2="192.7039" y2="250.8764"/><line class="cls-15" x1="192.7039" y1="250.8764" x2="205.6594" y2="236.0879"/><line class="cls-15" x1="205.6594" y1="236.0879" x2="195.6388" y2="219.2047"/><polygon class="cls-13" points="195.639 219.205 191.069 204.542 193.962 203.913 195.639 219.205 195.639 219.205"/><polygon class="cls-14" points="195.639 219.205 191.069 204.542 193.962 203.913 195.639 219.205 195.639 219.205"/><line class="cls-15" x1="195.6388" y1="219.2047" x2="213.4998" y2="210.9934"/><line class="cls-15" x1="213.4998" y1="210.9934" x2="206.8753" y2="196.6238"/><line class="cls-15" x1="213.4998" y1="210.9934" x2="220.1243" y2="225.4049"/><line class="cls-15" x1="213.4998" y1="210.9934" x2="231.3188" y2="202.7823"/><line class="cls-15" x1="231.3188" y1="202.7823" x2="246.6222" y2="195.7441"/><line class="cls-15" x1="231.3188" y1="202.7823" x2="237.9852" y2="217.1518"/><line class="cls-15" x1="231.3188" y1="202.7823" x2="224.6943" y2="188.4127"/><line class="cls-15" x1="174.6333" y1="243.126" x2="176.4362" y2="223.5616"/><line class="cls-15" x1="195.6388" y1="219.2047" x2="176.4362" y2="223.5616"/><line class="cls-15" x1="108.6401" y1="217.3194" x2="126.501" y2="209.1082"/><line class="cls-15" x1="156.8143" y1="251.3372" x2="140.7563" y2="239.9839"/><line class="cls-15" x1="121.0924" y1="267.7596" x2="122.8953" y2="248.1952"/><polygon class="cls-13" points="156.814 251.337 170.021 258.878 168.302 261.266 156.814 251.337 156.814 251.337"/><polygon class="cls-14" points="156.814 251.337 170.021 258.878 168.302 261.266 156.814 251.337 156.814 251.337"/><line class="cls-16" x1="175.7235" y1="241.8692" x2="175.975" y2="242.1205"/><line class="cls-16" x1="176.8136" y1="240.6542" x2="177.2748" y2="241.157"/><line class="cls-16" x1="177.9037" y1="239.4394" x2="178.5745" y2="240.1516"/><line class="cls-16" x1="178.9938" y1="238.2244" x2="179.8742" y2="239.188"/><line class="cls-16" x1="180.0839" y1="237.0095" x2="181.174" y2="238.1826"/><line class="cls-16" x1="181.174" y1="235.7526" x2="182.4737" y2="237.219"/><line class="cls-16" x1="182.2222" y1="234.5378" x2="183.7735" y2="236.2136"/><line class="cls-16" x1="183.3123" y1="233.3228" x2="185.1151" y2="235.25"/><line class="cls-16" x1="184.4024" y1="232.1079" x2="186.4149" y2="234.2446"/><polyline class="cls-15" points="161.217 212.795 160.42 212.208 159.498 212.627"/><polyline class="cls-15" points="143.44 220.001 142.559 220.42 142.475 221.425"/><polyline class="cls-15" points="126.585 208.103 126.501 209.108 125.621 209.485"/><polyline class="cls-15" points="128.22 190.507 128.304 189.544 127.507 188.957"/><polyline class="cls-15" points="113.042 178.777 112.246 178.191 111.365 178.61"/><polyline class="cls-15" points="92.666 205.003 92.582 205.966 93.379 206.553"/><polyline class="cls-15" points="107.843 216.733 108.64 217.319 109.521 216.9"/><polyline class="cls-15" points="107.634 237.428 106.837 236.884 105.957 237.303"/><polyline class="cls-15" points="89.899 244.676 88.976 245.095 88.892 246.059"/><polyline class="cls-15" points="87.299 263.696 87.173 264.659 88.012 265.204"/><polyline class="cls-15" points="102.435 275.426 103.231 275.971 104.154 275.594"/><polyline class="cls-15" points="136.354 278.526 137.151 279.113 138.031 278.694"/><polyline class="cls-15" points="154.089 271.279 155.011 270.902 155.095 269.896"/><polyline class="cls-15" points="191.823 250.457 192.704 250.876 193.375 250.122"/><polyline class="cls-15" points="205.03 236.842 205.659 236.088 205.156 235.25"/><path d="M147.23,199.8856a.43.43,0,0,1,.4193-.4189.4509.4509,0,0,1,.2516.0838,2.2784,2.2784,0,0,0,1.4674.5446,1.5077,1.5077,0,0,0,.9224-.2513.7936.7936,0,0,0,.2935-.6285.5792.5792,0,0,0-.2935-.5447,5.1211,5.1211,0,0,0-1.0482-.3769q-.6288-.1677-1.0062-.2933a1.3967,1.3967,0,0,1-.9224-1.3406,1.32,1.32,0,0,1,.587-1.1311,2.1987,2.1987,0,0,1,1.4674-.4608,2.9866,2.9866,0,0,1,1.719.5446.3978.3978,0,0,1,.1677.3351.4443.4443,0,0,1-.3773.3771.45.45,0,0,1-.2516-.0839,2.1357,2.1357,0,0,0-1.3416-.4189,1.3475,1.3475,0,0,0-.7966.2095.6793.6793,0,0,0-.2935.5865.5434.5434,0,0,0,.2935.5027,10.1659,10.1659,0,0,0,1.0062.3352,4.2454,4.2454,0,0,1,1.0063.3351,1.3786,1.3786,0,0,1,.9643,1.3825,1.4686,1.4686,0,0,1-.5451,1.173,2.2708,2.2708,0,0,1-1.5932.5028,2.896,2.896,0,0,1-1.9286-.67.3621.3621,0,0,1-.1678-.2933" transform="translate(-71 -22.8262)"/><path d="M138.0065,211.1132a2.53,2.53,0,0,1,2.0125.796,2.92,2.92,0,0,1,.7966,2.0946,2.867,2.867,0,0,1-.7966,2.0528,2.6585,2.6585,0,0,1-2.0125.8379,2.7947,2.7947,0,0,1-2.0544-.8379,2.7217,2.7217,0,0,1-.7547-2.0528,2.7769,2.7769,0,0,1,.7547-2.0946,2.6564,2.6564,0,0,1,2.0544-.796m0,.754a1.8558,1.8558,0,0,0-1.4255.5865,2.1862,2.1862,0,0,0-.5451,1.55,2.2823,2.2823,0,0,0,.5451,1.55,1.8555,1.8555,0,0,0,1.4255.5866,1.8068,1.8068,0,0,0,1.3836-.5866,2.4769,2.4769,0,0,0,0-3.1,1.8071,1.8071,0,0,0-1.3836-.5865" transform="translate(-71 -22.8262)"/><path d="M160.689,179.0225a2.7931,2.7931,0,0,1,2.8092,2.8906,2.7832,2.7832,0,0,1-.7967,2.0947,2.9418,2.9418,0,0,1-4.025,0,2.7835,2.7835,0,0,1-.7966-2.0947,2.7929,2.7929,0,0,1,2.8091-2.8906m0,.7541a1.8554,1.8554,0,0,0-1.4255.5865,2.4768,2.4768,0,0,0,0,3.1,2.0257,2.0257,0,0,0,2.8511,0,2.4768,2.4768,0,0,0,0-3.1,1.8555,1.8555,0,0,0-1.4256-.5865" transform="translate(-71 -22.8262)"/><path d="M140.3544,292.848a2.6585,2.6585,0,0,1,2.0125.8379,2.8672,2.8672,0,0,1,.7966,2.0528,2.9205,2.9205,0,0,1-.7966,2.0947,2.53,2.53,0,0,1-2.0125.7959,2.6564,2.6564,0,0,1-2.0544-.7959,2.9205,2.9205,0,0,1-.7966-2.0947,2.8672,2.8672,0,0,1,.7966-2.0528,2.7947,2.7947,0,0,1,2.0544-.8379m0,.7541a1.8555,1.8555,0,0,0-1.4255.5865,2.2821,2.2821,0,0,0-.5451,1.55,2.1857,2.1857,0,0,0,.5451,1.55,1.8555,1.8555,0,0,0,1.4255.5865,1.8068,1.8068,0,0,0,1.3836-.5865,2.2819,2.2819,0,0,0,.545-1.55,2.1273,2.1273,0,0,0-.545-1.5082,1.7517,1.7517,0,0,0-1.3836-.6284" transform="translate(-71 -22.8262)"/><path d="M262.6138,219.9528a2.7951,2.7951,0,0,1,2.0545.8379,2.8672,2.8672,0,0,1,.7966,2.0527,2.921,2.921,0,0,1-.7966,2.0947,2.6568,2.6568,0,0,1-2.0545.796,2.53,2.53,0,0,1-2.0125-.796,2.921,2.921,0,0,1-.7966-2.0947,2.8672,2.8672,0,0,1,.7966-2.0527,2.6585,2.6585,0,0,1,2.0125-.8379m0,.754a1.752,1.752,0,0,0-1.3836.6284,2.1279,2.1279,0,0,0-.545,1.5082,2.1861,2.1861,0,0,0,.545,1.55,1.7517,1.7517,0,0,0,1.3836.6284,1.7967,1.7967,0,0,0,1.4255-.6284,2.1857,2.1857,0,0,0,.5451-1.55,2.1276,2.1276,0,0,0-.5451-1.5082,1.797,1.797,0,0,0-1.4255-.6284" transform="translate(-71 -22.8262)"/><path d="M270.2865,225.2732v-2.1366h-3.1026v2.1366a.4025.4025,0,0,1-.1258.2934.2825.2825,0,0,1-.2516.1257.454.454,0,0,1-.3354-.1257.4024.4024,0,0,1-.1257-.2934v-4.8178a.43.43,0,0,1,.4192-.4189.3267.3267,0,0,1,.2935.1257.4019.4019,0,0,1,.1258.2932v1.9691h3.1026v-1.9691a.4193.4193,0,0,1,.8385,0v4.8178a.4193.4193,0,0,1-.8385,0" transform="translate(-71 -22.8262)"/><path d="M274.3534,218.4027v-4.7759q0-.4189.4612-.4189h2.9768a.4515.4515,0,0,1,.2516.0837.4021.4021,0,0,1,.1258.2932.3619.3619,0,0,1-.1258.2514.45.45,0,0,1-.2516.0839h-2.6v1.6338h2.5157a.3783.3783,0,0,1,0,.7541h-2.5157v2.0947a.4193.4193,0,0,1-.8385,0" transform="translate(-71 -22.8262)"/><path d="M290.7888,254.0962V249.32a.4075.4075,0,0,1,.4612-.4609h2.9769a.3783.3783,0,0,1,0,.7541h-2.5995v1.6338h2.5575a.45.45,0,0,1,.2516.0839.3615.3615,0,0,1,.1258.2513.4018.4018,0,0,1-.1258.2933.4513.4513,0,0,1-.2516.0837h-2.5575v2.1366a.4018.4018,0,0,1-.1258.2933.2824.2824,0,0,1-.2516.1256.4539.4539,0,0,1-.3354-.1256.4021.4021,0,0,1-.1258-.2933" transform="translate(-71 -22.8262)"/><path d="M318.293,219.7852v-4.734a.4075.4075,0,0,1,.4612-.4608h2.9349a.4026.4026,0,0,1,.2935.1256.4185.4185,0,0,1,0,.5027.4019.4019,0,0,1-.2935.1257h-2.5575v1.6339h2.5156a.3422.3422,0,0,1,.2516.0838.362.362,0,0,1,.1257.2514.4018.4018,0,0,1-.1257.2932.3422.3422,0,0,1-.2516.0838h-2.5156v2.0947a.4193.4193,0,0,1-.8386,0" transform="translate(-71 -22.8262)"/><path d="M308.65,245.8432v-4.7341a.4075.4075,0,0,1,.4612-.4608h2.9768a.3624.3624,0,0,1,.2515.1257.3139.3139,0,0,1,0,.5027.3624.3624,0,0,1-.2515.1257h-2.6v1.6339h2.5156a.5173.5173,0,0,1,.2935.0837.4507.4507,0,0,1,.0839.2514.3143.3143,0,0,1-.3774.3771h-2.5156v2.0947a.4193.4193,0,0,1-.8385,0" transform="translate(-71 -22.8262)"/><path d="M292.2143,210.1915v-4.7759a.4075.4075,0,0,1,.4613-.4608h2.9349a.4021.4021,0,0,1,.2935.1257.45.45,0,0,1,.0838.2513.314.314,0,0,1-.3773.377h-2.5576v1.6339h2.5156a.4446.4446,0,0,1,.3774.3771.3623.3623,0,0,1-.1258.2514.2824.2824,0,0,1-.2516.1256h-2.5156v2.0947a.4193.4193,0,0,1-.8386,0" transform="translate(-71 -22.8262)"/><path d="M245.3818,287.9464V285.81h-3.0607v2.1365a.4193.4193,0,0,1-.8385,0v-4.86a.4193.4193,0,0,1,.8385,0v1.969h3.0607v-1.969a.43.43,0,0,1,.4193-.4189.3264.3264,0,0,1,.2934.1257.4017.4017,0,0,1,.1258.2932v4.86a.4016.4016,0,0,1-.1258.2933.3264.3264,0,0,1-.2934.1257.43.43,0,0,1-.4193-.419" transform="translate(-71 -22.8262)"/><path d="M261.65,255.06v-2.1365h-3.1026V255.06a.4193.4193,0,0,1-.8385,0V250.2a.4193.4193,0,0,1,.8385,0v1.969H261.65V250.2a.5157.5157,0,0,1,.0839-.2932.4529.4529,0,0,1,.3354-.1257.43.43,0,0,1,.4192.4189v4.86a.43.43,0,0,1-.4192.419.4533.4533,0,0,1-.3354-.1257.5158.5158,0,0,1-.0839-.2933" transform="translate(-71 -22.8262)"/></g></g><text class="cls-17" transform="translate(42.4248 73.1606)">C[C@]12C[C@H](c3ccc(S(C)(=O)=O)cc3)<tspan x="-1.2686" y="14.3999">C3=C4CCC(=O)C=C4CC[C@H]3[C@@H]</tspan><tspan x="25.6963" y="28.7998">1CC[C@@]2(O)C(F)(F)C(F)(F)F</tspan></text><line class="cls-18" x1="35" y1="117.6738" x2="275" y2="117.6738"/><path class="cls-19" d="M331.6,51.3118H120.4c-7.92,0-14.4,4.8888-14.4,10.864V80H346V62.1758C346,56.2006,339.52,51.3118,331.6,51.3118Z" transform="translate(-71 -22.8262)"/><rect class="cls-18" x="35.0353" y="28.5415" width="240" height="260.1323" rx="12"/><text class="cls-20" transform="translate(94.1816 137.2905)">Molecular Structure</text><text class="cls-20" transform="translate(128.8163 48.1197)">SMILES</text><path class="cls-21" d="M859.5,40.5" transform="translate(-71 -22.8262)"/><rect class="cls-22" x="341.5" y="162.6738" width="122" height="72" rx="12"/><rect class="cls-22" x="338.5" y="165.6738" width="122" height="72" rx="12"/><rect class="cls-22" x="335.5" y="168.6738" width="122" height="72" rx="12"/><text class="cls-20" transform="translate(367.3421 192.2021)">Molecular<tspan x="-17.1274" y="16.7998">Graph Encoder</tspan><tspan x="-16.6592" y="33.6001">(5×G</tspan><tspan class="cls-23" x="14.8545" y="33.6001">A</tspan><tspan class="cls-24" x="23.1533" y="33.6001">T</tspan><tspan x="31.4521" y="33.6001" xml:space="preserve"> layers)</tspan></text><rect class="cls-25" x="572.5" y="248.5" width="16" height="16" transform="translate(253 814.1738) rotate(-90)"/><rect class="cls-26" x="572.5" y="184.5" width="16" height="16" transform="translate(317 750.1738) rotate(-90)"/><rect class="cls-27" x="572.5" y="232.5" width="16" height="16" transform="translate(269 798.1738) rotate(-90)"/><rect class="cls-26" x="572.5" y="216.5" width="16" height="16" transform="translate(285 782.1738) rotate(-90)"/><rect class="cls-25" x="572.5" y="200.5" width="16" height="16" transform="translate(301 766.1738) rotate(-90)"/><rect class="cls-28" x="589.5" y="334.5" width="16" height="16" transform="translate(869 -277.8262) rotate(90)"/><rect class="cls-29" x="589.5" y="398.5" width="16" height="16" transform="translate(933 -213.8262) rotate(90)"/><rect class="cls-30" x="589.5" y="350.5" width="16" height="16" transform="translate(885 -261.8262) rotate(90)"/><rect class="cls-29" x="589.5" y="366.5" width="16" height="16" transform="translate(901 -245.8262) rotate(90)"/><rect class="cls-30" x="589.5" y="382.5" width="16" height="16" transform="translate(917 -229.8262) rotate(90)"/><rect class="cls-30" x="580.5" y="342.5" width="16" height="16" transform="translate(868 -260.8262) rotate(90)"/><rect class="cls-29" x="580.5" y="406.5" width="16" height="16" transform="translate(932 -196.8262) rotate(90)"/><rect class="cls-29" x="580.5" y="358.5" width="16" height="16" transform="translate(884 -244.8262) rotate(90)"/><rect class="cls-28" x="580.5" y="374.5" width="16" height="16" transform="translate(900 -228.8262) rotate(90)"/><rect class="cls-30" x="580.5" y="390.5" width="16" height="16" transform="translate(916 -212.8262) rotate(90)"/><rect class="cls-30" x="572.5" y="414.5" width="16" height="16" transform="translate(87 980.1738) rotate(-90)"/><rect class="cls-29" x="572.5" y="350.5" width="16" height="16" transform="translate(151 916.1738) rotate(-90)"/><rect class="cls-28" x="572.5" y="398.5" width="16" height="16" transform="translate(103 964.1738) rotate(-90)"/><rect class="cls-29" x="572.5" y="382.5" width="16" height="16" transform="translate(119 948.1738) rotate(-90)"/><rect class="cls-30" x="572.5" y="366.5" width="16" height="16" transform="translate(135 932.1738) rotate(-90)"/><rect class="cls-31" x="572.5" y="122.5" width="16" height="16" transform="translate(379 688.1738) rotate(-90)"/><rect class="cls-32" x="572.5" y="58.5" width="16" height="16" transform="translate(443 624.1738) rotate(-90)"/><rect class="cls-33" x="572.5" y="106.5" width="16" height="16" transform="translate(395 672.1738) rotate(-90)"/><rect class="cls-32" x="572.5" y="90.5" width="16" height="16" transform="translate(411 656.1738) rotate(-90)"/><rect class="cls-31" x="572.5" y="74.5" width="16" height="16" transform="translate(427 640.1738) rotate(-90)"/><rect class="cls-34" x="335.5" y="57.149" width="128.8294" height="37.5248" rx="12"/><text class="cls-20" transform="translate(359.1842 79.5622)">ChemBE<tspan class="cls-24" x="56.0205" y="0">R</tspan><tspan class="cls-35" x="65.8779" y="0">T</tspan><tspan x="72.8779" y="0">a</tspan></text><rect class="cls-36" x="551.5" y="255.8311" width="138" height="57.8428" rx="12"/><text class="cls-20" transform="translate(557.8672 281.3623)">Substructure-<tspan class="cls-24" x="84.0342" y="0">A</tspan><tspan x="93.1191" y="0">ware</tspan><tspan x="13.4912" y="16.7998">Cross-Attention</tspan></text><line class="cls-18" x1="155.5" y1="289.1738" x2="155.5" y2="308.1133"/><polygon points="155.5 315.174 151.435 305.225 155.5 307.585 159.564 305.225 155.5 315.174"/><line class="cls-18" x1="788.5" y1="94.7344" x2="788.5" y2="244.1738"/><polygon points="788.5 87.674 784.435 97.623 788.5 95.262 792.564 97.623 788.5 87.674"/><line class="cls-18" x1="275.25" y1="201.6738" x2="328.1895" y2="201.6738"/><polygon points="335.25 201.674 325.301 205.739 327.662 201.674 325.301 197.609 335.25 201.674"/><line class="cls-18" x1="308.5" y1="367.6738" x2="331.9395" y2="367.6738"/><polygon points="339 367.674 329.051 371.739 331.412 367.674 329.051 363.609 339 367.674"/><path class="cls-37" d="M361.02,338.9063H89.98c-10.164,0-18.48,4.5628-18.48,10.14v16.6359h308V349.046C379.5,343.4691,371.184,338.9063,361.02,338.9063Z" transform="translate(-71 -22.8262)"/><rect class="cls-18" x="0.5" y="315.6738" width="308" height="92" rx="12"/><text class="cls-20" transform="translate(88.6868 334.2021)">BRICS Substructures</text><g class="cls-38"><g class="cls-39"><polygon class="cls-12" points="3.261 324.413 103.155 324.413 103.155 424.451 3.261 424.451 3.261 324.413 3.261 324.413"/><line class="cls-40" x1="95.0635" y1="374.3718" x2="79.2203" y2="374.3718"/><line class="cls-40" x1="79.2203" y1="374.3718" x2="70.3098" y2="389.7976"/><line class="cls-40" x1="76.1236" y1="374.3718" x2="68.7714" y2="387.1366"/><line class="cls-40" x1="70.3098" y1="389.7976" x2="52.5287" y2="389.7976"/><line class="cls-40" x1="52.5287" y1="389.7976" x2="43.6382" y2="374.3718"/><line class="cls-40" x1="54.0671" y1="387.1366" x2="46.7149" y2="374.3718"/><line class="cls-40" x1="43.6382" y1="374.3718" x2="28.9538" y2="374.3718"/><line class="cls-40" x1="22.7404" y1="374.3718" x2="8.056" y2="374.3718"/><line class="cls-40" x1="24.5185" y1="378.4733" x2="24.5185" y2="388.197"/><line class="cls-40" x1="27.1757" y1="378.4733" x2="27.1757" y2="388.197"/><line class="cls-40" x1="27.1757" y1="370.3903" x2="27.1757" y2="360.6666"/><line class="cls-40" x1="24.5185" y1="370.3903" x2="24.5185" y2="360.6666"/><line class="cls-40" x1="43.6382" y1="374.3718" x2="52.5287" y2="358.946"/><line class="cls-40" x1="52.5287" y1="358.946" x2="70.3098" y2="358.946"/><line class="cls-40" x1="54.0671" y1="361.607" x2="68.7714" y2="361.607"/><line class="cls-40" x1="70.3098" y1="358.946" x2="79.2203" y2="374.3718"/><polyline class="cls-40" points="70.769 389.037 70.31 389.798 69.431 389.798"/><polyline class="cls-40" points="53.428 389.798 52.529 389.798 52.089 389.037"/><polyline class="cls-40" points="52.089 359.706 52.529 358.946 53.428 358.946"/><polyline class="cls-40" points="69.431 358.946 70.31 358.946 70.769 359.706"/><path d="M167.7617,396.5777l.04-.94-.7791.52a.1954.1954,0,0,1-.14.04.2826.2826,0,0,1-.24-.24.2447.2447,0,0,1,.14-.22l.8191-.42-.8191-.42a.2447.2447,0,0,1-.14-.22.2829.2829,0,0,1,.24-.24.2467.2467,0,0,1,.14.04l.7791.5-.04-.94a.19.19,0,0,1,.06-.18.2421.2421,0,0,1,.36,0,.1907.1907,0,0,1,.06.18l-.04.94.7792-.5a.1629.1629,0,0,1,.12-.04.2484.2484,0,0,1,.18.08.19.19,0,0,1,.08.16.2446.2446,0,0,1-.14.22l-.8191.42.8191.42a.2446.2446,0,0,1,.14.22.1906.1906,0,0,1-.08.16.2105.2105,0,0,1-.18.08q-.1,0-.12-.04l-.7792-.52.04.94a.1907.1907,0,0,1-.06.18.2421.2421,0,0,1-.36,0,.19.19,0,0,1-.06-.18" transform="translate(-71 -22.8262)"/><path d="M94.34,399.5588a.4778.4778,0,0,1,.48-.48.5053.5053,0,0,1,.3.1,2.6966,2.6966,0,0,0,1.7581.64,1.6529,1.6529,0,0,0,1.0789-.3.8763.8763,0,0,0,.38-.74.8091.8091,0,0,0-.38-.68,5.0506,5.0506,0,0,0-1.2187-.44,11.7654,11.7654,0,0,1-1.1987-.36,1.6092,1.6092,0,0,1-1.1188-1.5806,1.634,1.634,0,0,1,.6792-1.3605,2.7393,2.7393,0,0,1,1.7582-.54,3.5168,3.5168,0,0,1,2.0578.64.431.431,0,0,1,.22.38.4777.4777,0,0,1-.4794.48.5587.5587,0,0,1-.28-.08,2.44,2.44,0,0,0-1.5982-.54,1.6022,1.6022,0,0,0-.959.26.8026.8026,0,0,0-.36.68.6646.6646,0,0,0,.36.6,4.6685,4.6685,0,0,0,1.1787.4,8.7287,8.7287,0,0,1,1.2187.4,1.6626,1.6626,0,0,1,1.1388,1.6606,1.8666,1.8666,0,0,1-.6393,1.4406,2.7722,2.7722,0,0,1-1.878.56,3.5638,3.5638,0,0,1-2.3175-.76.493.493,0,0,1-.18-.38" transform="translate(-71 -22.8262)"/><path d="M96.8571,411.6234a3.1191,3.1191,0,0,1,2.3974.98,3.6626,3.6626,0,0,1,0,4.9418,3.446,3.446,0,0,1-4.8149,0,3.72,3.72,0,0,1,0-4.9418,3.1432,3.1432,0,0,1,2.4175-.98m0,.88a2.1977,2.1977,0,0,0-1.6982.72,2.97,2.97,0,0,0,0,3.6814,2.1977,2.1977,0,0,0,1.6982.72,2.1752,2.1752,0,0,0,1.6782-.72,2.67,2.67,0,0,0,.6393-1.8407,2.6412,2.6412,0,0,0-.6393-1.8207,2.1483,2.1483,0,0,0-1.6782-.74" transform="translate(-71 -22.8262)"/><path d="M96.8571,375.99a3.1194,3.1194,0,0,1,2.3974.98,3.3388,3.3388,0,0,1,.959,2.481,3.38,3.38,0,0,1-.959,2.4809,3.4976,3.4976,0,0,1-4.8149,0,3.4176,3.4176,0,0,1-.939-2.4809,3.3759,3.3759,0,0,1,.939-2.481,3.1434,3.1434,0,0,1,2.4175-.98m0,.9a2.1977,2.1977,0,0,0-1.6982.72,2.97,2.97,0,0,0,0,3.6814,2.1979,2.1979,0,0,0,1.6982.72,2.1754,2.1754,0,0,0,1.6782-.72,2.7168,2.7168,0,0,0,.6393-1.8407,2.6694,2.6694,0,0,0-.6393-1.8407,2.1752,2.1752,0,0,0-1.6782-.72" transform="translate(-71 -22.8262)"/></g></g><g class="cls-41"><g class="cls-42"><polygon class="cls-12" points="109.007 322.169 216.81 322.169 216.81 429.903 109.007 429.903 109.007 322.169 109.007 322.169"/><polygon class="cls-13" points="187.078 368.602 188.76 356.385 190.571 356.773 187.078 368.602 187.078 368.602"/><polygon class="cls-43" points="187.078 368.602 188.76 356.385 190.571 356.773 187.078 368.602 187.078 368.602"/><line class="cls-44" x1="187.0779" y1="368.6023" x2="178.0872" y2="360.1991"/><line class="cls-44" x1="178.0872" y1="360.1991" x2="166.3151" y2="363.7758"/><polygon class="cls-13" points="166.315 363.776 157.238 356.558 158.489 355.2 166.315 363.776 166.315 363.776"/><polygon class="cls-43" points="166.315 363.776 157.238 356.558 158.489 355.2 166.315 363.776 166.315 363.776"/><line class="cls-44" x1="166.3151" y1="363.7758" x2="163.5338" y2="375.7559"/><line class="cls-44" x1="163.5338" y1="375.7559" x2="151.7618" y2="379.3326"/><line class="cls-44" x1="163.038" y1="377.8244" x2="153.3141" y2="380.7978"/><line class="cls-44" x1="151.7618" y1="379.3326" x2="142.771" y2="370.9294"/><line class="cls-44" x1="142.771" y1="370.9294" x2="130.9774" y2="374.5062"/><line class="cls-44" x1="130.9774" y1="374.5062" x2="128.1961" y2="386.4862"/><line class="cls-44" x1="128.4333" y1="385.452" x2="119.4641" y2="388.1884"/><line class="cls-44" x1="128.9723" y1="387.2188" x2="120.0031" y2="389.9552"/><line class="cls-44" x1="128.1961" y1="386.4862" x2="137.1869" y2="394.8894"/><line class="cls-44" x1="137.1869" y1="394.8894" x2="148.9589" y2="391.3127"/><line class="cls-44" x1="137.6828" y1="392.8209" x2="147.4066" y2="389.8691"/><line class="cls-44" x1="148.9589" y1="391.3127" x2="157.9497" y2="399.7159"/><line class="cls-44" x1="157.9497" y1="399.7159" x2="169.7433" y2="396.1392"/><line class="cls-44" x1="169.7433" y1="396.1392" x2="172.5246" y2="384.1592"/><line class="cls-44" x1="172.5246" y1="384.1592" x2="184.2966" y2="380.5824"/><line class="cls-44" x1="184.2966" y1="380.5824" x2="194.8397" y2="386.9387"/><line class="cls-44" x1="194.8397" y1="386.9387" x2="204.1323" y2="378.8802"/><line class="cls-44" x1="204.1323" y1="378.8802" x2="199.3459" y2="367.5465"/><line class="cls-44" x1="199.3459" y1="367.5465" x2="198.7422" y2="358.7123"/><line class="cls-45" x1="200.1652" y1="367.2233" x2="200.2083" y2="367.3526"/><line class="cls-45" x1="200.9845" y1="366.8786" x2="201.0707" y2="367.1803"/><line class="cls-45" x1="201.8038" y1="366.5554" x2="201.9547" y2="366.9863"/><line class="cls-45" x1="202.6231" y1="366.2322" x2="202.8171" y2="366.8139"/><line class="cls-45" x1="203.464" y1="365.8874" x2="203.6796" y2="366.62"/><line class="cls-45" x1="204.2833" y1="365.5642" x2="204.542" y2="366.4477"/><line class="cls-45" x1="205.1026" y1="365.241" x2="205.4044" y2="366.2537"/><line class="cls-45" x1="205.9219" y1="364.8963" x2="206.2668" y2="366.0813"/><line class="cls-45" x1="206.7412" y1="364.5731" x2="207.1508" y2="365.8874"/><line class="cls-45" x1="207.5605" y1="364.2499" x2="208.0132" y2="365.7151"/><line class="cls-45" x1="208.3798" y1="363.9051" x2="208.8757" y2="365.5212"/><line class="cls-45" x1="209.1991" y1="363.5819" x2="209.7381" y2="365.3488"/><line class="cls-44" x1="184.2966" y1="380.5824" x2="187.0779" y2="368.6023"/><line class="cls-44" x1="199.3459" y1="367.5465" x2="187.0779" y2="368.6023"/><line class="cls-44" x1="172.5246" y1="384.1592" x2="163.5338" y2="375.7559"/><line class="cls-44" x1="148.9589" y1="391.3127" x2="151.7618" y2="379.3326"/><polygon class="cls-13" points="172.525 384.159 178.885 388.835 177.613 390.192 172.525 384.159 172.525 384.159"/><polygon class="cls-43" points="172.525 384.159 178.885 388.835 177.613 390.192 172.525 384.159 172.525 384.159"/><line class="cls-45" x1="184.9866" y1="379.9575" x2="185.1159" y2="380.1299"/><line class="cls-45" x1="185.6981" y1="379.3542" x2="185.9352" y2="379.699"/><line class="cls-45" x1="186.388" y1="378.7509" x2="186.7545" y2="379.2465"/><line class="cls-45" x1="187.0995" y1="378.126" x2="187.5738" y2="378.794"/><line class="cls-45" x1="187.7894" y1="377.5227" x2="188.3931" y2="378.363"/><line class="cls-45" x1="188.5009" y1="376.8979" x2="189.1909" y2="377.9106"/><line class="cls-45" x1="189.1909" y1="376.2945" x2="190.0102" y2="377.4581"/><line class="cls-45" x1="189.9024" y1="375.6697" x2="190.8295" y2="377.0271"/><line class="cls-45" x1="190.5923" y1="375.0664" x2="191.6488" y2="376.5747"/><polyline class="cls-44" points="178.54 360.608 178.087 360.199 177.505 360.371"/><polyline class="cls-44" points="166.897 363.603 166.315 363.776 166.186 364.379"/><polyline class="cls-44" points="143.202 371.36 142.771 370.929 142.167 371.123"/><polyline class="cls-44" points="131.581 374.334 130.977 374.506 130.848 375.109"/><polyline class="cls-44" points="128.347 385.904 128.196 386.486 128.649 386.917"/><polyline class="cls-44" points="136.734 394.48 137.187 394.889 137.769 394.717"/><polyline class="cls-44" points="157.497 399.307 157.95 399.716 158.553 399.544"/><polyline class="cls-44" points="169.14 396.312 169.743 396.139 169.873 395.536"/><polyline class="cls-44" points="194.301 386.615 194.84 386.939 195.314 386.529"/><polyline class="cls-44" points="203.68 379.268 204.132 378.88 203.895 378.298"/><path d="M228.1088,377.66l.0431-.7972-.6684.4309a.1756.1756,0,0,1-.1293.0431.1452.1452,0,0,1-.1294-.0646.2069.2069,0,0,1-.0647-.1509.1679.1679,0,0,1,.1078-.1724l.7115-.3662-.7115-.3664a.2116.2116,0,0,1-.1078-.1939.2068.2068,0,0,1,.0647-.1508.1761.1761,0,0,1,.1294-.0431.2993.2993,0,0,1,.1293.0216l.6684.4309-.0431-.7972a.2156.2156,0,0,1,.4312,0l-.0431.7972.6684-.4309a.24.24,0,0,1,.1078-.0216.2659.2659,0,0,1,.1509.0431.2068.2068,0,0,1,.0647.1508.2469.2469,0,0,1-.1078.1939l-.7115.3664.7115.3662a.195.195,0,0,1,.1078.1724.2069.2069,0,0,1-.0647.1509.168.168,0,0,1-.1509.0646q-.0863,0-.1078-.0431l-.6684-.4309.0431.7972a.2061.2061,0,0,1-.0647.1508.1752.1752,0,0,1-.3018,0,.2065.2065,0,0,1-.0647-.1508" transform="translate(-71 -22.8262)"/><path d="M187.4241,409.98a2.6658,2.6658,0,0,1,2.07.84,3.1865,3.1865,0,0,1,0,4.2662,2.6661,2.6661,0,0,1-2.07.84,2.733,2.733,0,0,1-2.0914-.84,3.2509,3.2509,0,0,1,0-4.2662,2.7328,2.7328,0,0,1,2.0914-.84m0,.7757a1.9083,1.9083,0,0,0-1.4661.6033,2.6274,2.6274,0,0,0,0,3.1889,1.9083,1.9083,0,0,0,1.4661.6034,1.8829,1.8829,0,0,0,1.4445-.6034,2.3478,2.3478,0,0,0,.5606-1.5944,2.2673,2.2673,0,0,0-.5606-1.5729,1.8518,1.8518,0,0,0-1.4445-.6249" transform="translate(-71 -22.8262)"/><path d="M269.505,375.1822a2.6666,2.6666,0,0,1,2.07.84,3.1863,3.1863,0,0,1,0,4.2663,2.6659,2.6659,0,0,1-2.07.84,2.7328,2.7328,0,0,1-2.0913-.84,3.2507,3.2507,0,0,1,0-4.2663,2.7335,2.7335,0,0,1,2.0913-.84m0,.7541a1.8763,1.8763,0,0,0-1.4661.6249,2.3543,2.3543,0,0,0-.539,1.5945,2.2721,2.2721,0,0,0,.539,1.5729,1.8763,1.8763,0,0,0,1.4661.6249,1.8519,1.8519,0,0,0,1.4446-.6249,2.2675,2.2675,0,0,0,.5606-1.5729,2.2186,2.2186,0,0,0-.5606-1.5729,1.8241,1.8241,0,0,0-1.4446-.6465" transform="translate(-71 -22.8262)"/><path d="M277.3962,380.6336v-2.1763h-3.191v2.1763a.4312.4312,0,0,1-.8624,0v-4.9773a.4312.4312,0,0,1,.8624,0v2.0253h3.191v-2.0253a.4566.4566,0,0,1,.1078-.3017.4388.4388,0,0,1,.3234-.1293.4419.4419,0,0,1,.4312.431v4.9773a.4419.4419,0,0,1-.4312.4309.4388.4388,0,0,1-.3234-.1293.4565.4565,0,0,1-.1078-.3016" transform="translate(-71 -22.8262)"/><path d="M281.9023,386.2573l.0432-.7973-.6684.431a.2412.2412,0,0,1-.1078.0215.2659.2659,0,0,1-.1509-.0431.2062.2062,0,0,1-.0647-.1508.2115.2115,0,0,1,.1078-.1939l.7115-.3448-.7115-.3878a.1677.1677,0,0,1-.1078-.1724.221.221,0,0,1,.2156-.2154.1465.1465,0,0,1,.1078.043l.6684.431-.0432-.8188a.145.145,0,0,1,.0647-.1293.1753.1753,0,0,1,.3019,0,.145.145,0,0,1,.0647.1293l-.0432.8188.6684-.431a.1465.1465,0,0,1,.1078-.043.221.221,0,0,1,.2156.2154.1948.1948,0,0,1-.1078.1724l-.7115.3878.7115.3448a.247.247,0,0,1,.1078.1939.2656.2656,0,0,1-.0431.1508.3069.3069,0,0,1-.1725.0431.1712.1712,0,0,1-.1078-.0215l-.6684-.431.0432.7973a.2157.2157,0,0,1-.4313,0" transform="translate(-71 -22.8262)"/><path d="M254.1108,417.888v-2.1762H250.92v2.1762a.4312.4312,0,0,1-.8624,0v-4.9558a.4312.4312,0,0,1,.8624,0v2.0254h3.191v-2.0254a.4565.4565,0,0,1,.1078-.3016.4391.4391,0,0,1,.3234-.1293.4419.4419,0,0,1,.4312.4309v4.9558a.4417.4417,0,0,1-.4312.4309.4394.4394,0,0,1-.3234-.1292.4567.4567,0,0,1-.1078-.3017" transform="translate(-71 -22.8262)"/><path d="M266.9825,398.8837v-2.1978h-3.191v2.1978a.4133.4133,0,0,1-.1294.3017.3476.3476,0,0,1-.28.1293.4391.4391,0,0,1-.3234-.1293.4135.4135,0,0,1-.1293-.3017v-4.9773a.4421.4421,0,0,1,.4312-.431.371.371,0,0,1,.3018.1294.4129.4129,0,0,1,.1294.3016v2.0254h3.191v-2.0254a.4312.4312,0,0,1,.8624,0v4.9773a.4312.4312,0,0,1-.8624,0" transform="translate(-71 -22.8262)"/></g></g><g class="cls-46"><g class="cls-47"><polygon class="cls-12" points="225.113 336.493 303.292 336.493 303.292 414.689 225.113 414.689 225.113 336.493 225.113 336.493"/><line class="cls-48" x1="232.2271" y1="375.5751" x2="252.5849" y2="375.5751"/><line class="cls-48" x1="252.5849" y1="375.5751" x2="252.5849" y2="394.0763"/><line class="cls-48" x1="252.5849" y1="375.5751" x2="252.5849" y2="357.1051"/><line class="cls-48" x1="252.5849" y1="375.5751" x2="274.9597" y2="375.5751"/><line class="cls-48" x1="274.9597" y1="375.5751" x2="294.4732" y2="375.5594"/><line class="cls-48" x1="274.9597" y1="375.5751" x2="274.9597" y2="357.1051"/><line class="cls-48" x1="274.9597" y1="375.5751" x2="274.9597" y2="394.0763"/><path d="M300.9912,397.8069l.0313-.86-.7349.4692a.1815.1815,0,0,1-.1251.0313.2224.2224,0,0,1-.0938-.4223l.7818-.391-.7818-.4066a.2211.2211,0,0,1,.0938-.4223.2228.2228,0,0,1,.1251.0313l.7349.4692-.0313-.8758a.1694.1694,0,0,1,.0469-.1564.2392.2392,0,0,1,.172-.0782.2083.2083,0,0,1,.172.0782.1558.1558,0,0,1,.0625.1564l-.0469.8758.7349-.4692a.2228.2228,0,0,1,.1251-.0313.2123.2123,0,0,1,.1564.0626.1925.1925,0,0,1,.0781.1564.2312.2312,0,0,1-.1407.2033l-.7661.4066.7661.391a.2311.2311,0,0,1,.1407.2033.1925.1925,0,0,1-.0781.1564.2123.2123,0,0,1-.1564.0626.1815.1815,0,0,1-.1251-.0313l-.7349-.4692.0469.86a.19.19,0,0,1-.0625.1721.2083.2083,0,0,1-.172.0782.2392.2392,0,0,1-.172-.0782.21.21,0,0,1-.0469-.1721" transform="translate(-71 -22.8262)"/><path d="M321.4584,423.4866V418.138a.4493.4493,0,0,1,.516-.5h3.3148a.42.42,0,0,1,.2971.72.4366.4366,0,0,1-.2971.1094h-2.8926v1.83h2.83a.4053.4053,0,0,1,.297.1252.3568.3568,0,0,1,.1251.2814.4272.4272,0,0,1-.4221.4223h-2.83v2.3615a.45.45,0,0,1-.1407.3284.401.401,0,0,1-.3127.1408.4675.4675,0,0,1-.344-.1408.45.45,0,0,1-.1408-.3284" transform="translate(-71 -22.8262)"/><path d="M321.4584,378.7271v-5.3487a.4493.4493,0,0,1,.516-.5h3.3148a.42.42,0,0,1,.2971.7194.4366.4366,0,0,1-.2971.11h-2.8926v1.83h2.83a.4056.4056,0,0,1,.297.1251.3569.3569,0,0,1,.1251.2815.4272.4272,0,0,1-.4221.4222h-2.83v2.3616a.45.45,0,0,1-.1407.3284.4012.4012,0,0,1-.3127.1407.4678.4678,0,0,1-.344-.1407.45.45,0,0,1-.1408-.3284" transform="translate(-71 -22.8262)"/><path d="M366.2081,401.1069v-5.3487a.4493.4493,0,0,1,.5159-.5h3.3148a.42.42,0,0,1,.2971.7194.4366.4366,0,0,1-.2971.11h-2.8926v1.83h2.83a.3563.3563,0,0,1,.2814.1251.3408.3408,0,0,1,.1408.2815.385.385,0,0,1-.1408.2971.3567.3567,0,0,1-.2814.1251h-2.83v2.3616a.45.45,0,0,1-.1407.3284.4011.4011,0,0,1-.3127.1407.468.468,0,0,1-.344-.1407.45.45,0,0,1-.1407-.3284" transform="translate(-71 -22.8262)"/><path d="M343.8333,378.7271v-5.3487a.4492.4492,0,0,1,.5159-.5h3.3148a.42.42,0,0,1,.2971.7194.4366.4366,0,0,1-.2971.11h-2.8926v1.83h2.83a.3568.3568,0,0,1,.2814.1251.341.341,0,0,1,.1407.2815.3851.3851,0,0,1-.1407.2971.3568.3568,0,0,1-.2814.1251h-2.83v2.3616a.45.45,0,0,1-.1407.3284.4011.4011,0,0,1-.3127.1407.468.468,0,0,1-.344-.1407.45.45,0,0,1-.1407-.3284" transform="translate(-71 -22.8262)"/><path d="M343.8333,423.4866V418.138a.4493.4493,0,0,1,.5159-.5h3.3148a.42.42,0,0,1,.2971.72.4366.4366,0,0,1-.2971.1094h-2.8926v1.83h2.83a.3566.3566,0,0,1,.2814.1252.3409.3409,0,0,1,.1407.2814.3853.3853,0,0,1-.1407.2972.3568.3568,0,0,1-.2814.1251h-2.83v2.3615a.45.45,0,0,1-.1407.3284.4008.4008,0,0,1-.3127.1408.4677.4677,0,0,1-.344-.1408.45.45,0,0,1-.1407-.3284" transform="translate(-71 -22.8262)"/></g></g><line class="cls-18" x1="106" y1="342.6738" x2="106" y2="407.8297"/><line class="cls-18" x1="220.5" y1="342.6738" x2="220.5" y2="407.8297"/><line class="cls-18" x1="275.3647" y1="75.3733" x2="328.3042" y2="75.3733"/><polygon points="335.365 75.373 325.415 79.439 327.776 75.373 325.415 71.309 335.365 75.373"/><line class="cls-18" x1="464" y1="75.6738" x2="493.9396" y2="75.8836"/><polygon points="501 75.933 491.023 79.929 493.412 75.88 491.079 71.799 501 75.933"/><line class="cls-18" x1="464" y1="201.6738" x2="493.9396" y2="201.8836"/><polygon points="501 201.933 491.023 205.929 493.412 201.88 491.079 197.799 501 201.933"/><line class="cls-18" x1="464" y1="367.6738" x2="493.9396" y2="367.8836"/><polygon points="501 367.933 491.023 371.929 493.412 367.88 491.079 363.799 501 367.933"/><circle class="cls-18" cx="788.3529" cy="77.4797" r="9.75"/><line class="cls-18" x1="778.6029" y1="77.4797" x2="798.1029" y2="77.4797"/><line class="cls-18" x1="788.3529" y1="67.7297" x2="788.3529" y2="87.2297"/><line class="cls-18" x1="518.25" y1="75.6738" x2="771.6896" y2="77.0369"/><polygon points="778.75 77.075 768.779 81.087 771.162 77.034 768.823 72.957 778.75 77.075"/><line class="cls-18" x1="798.136" y1="77.6792" x2="893.0755" y2="77.6742"/><polygon points="900.136 77.674 890.187 81.74 892.548 77.674 890.187 73.61 900.136 77.674"/><path class="cls-18" d="M589,224.8989h63.4051a6.0658,6.0658,0,0,1,6.0949,6v40.9395" transform="translate(-71 -22.8262)"/><polygon points="587.5 256.073 583.435 246.124 587.5 248.484 591.564 246.124 587.5 256.073"/><path class="cls-18" d="M656.5,343.67v40.9394a6.0176,6.0176,0,0,1-6,6h-45" transform="translate(-71 -22.8262)"/><polygon points="585.5 313.783 581.435 323.732 585.5 321.372 589.564 323.732 585.5 313.783"/><path class="cls-18" d="M786.913,390.9765H733.5142a9.2481,9.2481,0,0,1-9.0407-9.3913V336.9765" transform="translate(-71 -22.8262)"/><polygon points="722.974 368.15 713.024 364.085 715.385 368.15 713.024 372.215 722.974 368.15"/><rect class="cls-29" x="851.5" y="331.5" width="16" height="16" transform="translate(449 1176.1738) rotate(-90)"/><rect class="cls-27" x="851.5" y="267.5" width="16" height="16" transform="translate(513 1112.1738) rotate(-90)"/><rect class="cls-30" x="851.5" y="315.5" width="16" height="16" transform="translate(465 1160.1738) rotate(-90)"/><rect class="cls-25" x="851.5" y="299.5" width="16" height="16" transform="translate(481 1144.1738) rotate(-90)"/><rect class="cls-26" x="851.5" y="283.5" width="16" height="16" transform="translate(497 1128.1738) rotate(-90)"/><rect class="cls-25" x="794.5" y="248.5" width="16" height="16" transform="translate(475 1036.1738) rotate(-90)"/><rect class="cls-27" x="794.5" y="184.5" width="16" height="16" transform="translate(539 972.1738) rotate(-90)"/><rect class="cls-26" x="794.5" y="232.5" width="16" height="16" transform="translate(491 1020.1738) rotate(-90)"/><rect class="cls-25" x="794.5" y="216.5" width="16" height="16" transform="translate(507 1004.1738) rotate(-90)"/><rect class="cls-26" x="794.5" y="200.5" width="16" height="16" transform="translate(523 988.1738) rotate(-90)"/><rect class="cls-30" x="794.5" y="414.5" width="16" height="16" transform="translate(309 1202.1738) rotate(-90)"/><rect class="cls-29" x="794.5" y="350.5" width="16" height="16" transform="translate(373 1138.1738) rotate(-90)"/><rect class="cls-28" x="794.5" y="398.5" width="16" height="16" transform="translate(325 1186.1738) rotate(-90)"/><rect class="cls-29" x="794.5" y="382.5" width="16" height="16" transform="translate(341 1170.1738) rotate(-90)"/><rect class="cls-28" x="794.5" y="366.5" width="16" height="16" transform="translate(357 1154.1738) rotate(-90)"/><line class="cls-18" x1="741" y1="284.6738" x2="773.4395" y2="284.6738"/><polygon points="780.5 284.674 770.551 288.739 772.912 284.674 770.551 280.609 780.5 284.674"/><circle class="cls-18" cx="731.25" cy="284.4238" r="9.75"/><line class="cls-18" x1="721.5" y1="284.4238" x2="741" y2="284.4238"/><line class="cls-18" x1="731.25" y1="274.6738" x2="731.25" y2="294.1738"/><text class="cls-20" transform="translate(747.9863 279.3032)">FC</text><line class="cls-18" x1="731.5" y1="242.1738" x2="731.5" y2="268.1133"/><polygon points="731.5 275.174 727.435 265.225 731.5 267.585 735.564 265.225 731.5 275.174"/><line class="cls-18" x1="731.5" y1="327.1738" x2="731.5" y2="301.2344"/><polygon points="731.5 294.174 735.565 304.123 731.5 301.762 727.436 304.123 731.5 294.174"/><text class="cls-20" transform="translate(809.9679 71.6018)">LayerNorm</text><line class="cls-18" x1="908.5" y1="117.1738" x2="908.5" y2="131.6133"/><polygon points="908.5 138.674 904.435 128.725 908.5 131.085 912.564 128.725 908.5 138.674"/><line class="cls-18" x1="939.5" y1="147.6738" x2="925.0605" y2="147.6738"/><polygon points="918 147.674 927.949 143.608 925.588 147.674 927.949 151.738 918 147.674"/><rect class="cls-29" x="971.5" y="124.5" width="16" height="16" transform="translate(776 1089.1738) rotate(-90)"/><rect class="cls-32" x="971.5" y="60.5" width="16" height="16" transform="translate(840 1025.1738) rotate(-90)"/><rect class="cls-30" x="971.5" y="108.5" width="16" height="16" transform="translate(792 1073.1738) rotate(-90)"/><rect class="cls-25" x="971.5" y="92.5" width="16" height="16" transform="translate(808 1057.1738) rotate(-90)"/><rect class="cls-26" x="971.5" y="76.5" width="16" height="16" transform="translate(824 1041.1738) rotate(-90)"/><circle class="cls-18" cx="908.2941" cy="147.6679" r="9.75"/><line class="cls-18" x1="898.5441" y1="147.6679" x2="918.0441" y2="147.6679"/><line class="cls-18" x1="908.2941" y1="137.9179" x2="908.2941" y2="157.4179"/><rect class="cls-49" x="939.5" y="139.6738" width="16" height="16"/><text class="cls-20" transform="translate(931.0945 134.2019)">Dose</text><line class="cls-18" x1="908.3887" y1="157.2709" x2="908.4765" y2="183.6133"/><polygon points="908.5 190.674 904.401 180.738 908.475 183.085 912.531 180.711 908.5 190.674"/><text class="cls-20" transform="translate(914.6946 175.6493)">MT<tspan class="cls-50" x="20.2139" y="0">L</tspan></text><rect class="cls-18" x="851.5" y="191.482" width="116" height="27.1918" rx="12"/><text class="cls-20" transform="translate(869.0475 208.8951)">Output Layer</text><line class="cls-18" x1="908.8593" y1="218.7385" x2="908.8593" y2="229.678"/><polygon points="908.859 236.739 904.794 226.789 908.859 229.15 912.924 226.789 908.859 236.739"/><path class="cls-51" d="M1060.1591,259.5762H901.1586a10.8845,10.8845,0,0,0-10.841,10.864v17.8242H1071V270.44A10.8844,10.8844,0,0,0,1060.1591,259.5762Z" transform="translate(-71 -22.8262)"/><text class="cls-20" transform="translate(832.1339 256.3842)">Predicted PK Parameters</text><g class="cls-52"><g class="cls-53"><polygon class="cls-12" points="834.895 403.818 982.942 403.818 982.942 266.039 834.895 266.039 834.895 403.818 834.895 403.818"/><polygon class="cls-12" points="853.298 386.691 969.813 386.691 969.813 278.258 853.298 278.258 853.298 386.691 853.298 386.691"/><polygon class="cls-54" points="853.298 386.691 853.298 386.691 854.463 369.923 855.628 355.568 856.793 343.358 857.959 333.049 859.124 324.425 860.289 317.291 861.454 311.473 862.619 306.815 863.784 303.176 864.949 300.432 866.115 298.47 867.28 297.191 868.445 296.506 869.61 296.334 870.775 296.606 871.94 297.258 873.106 298.234 874.271 299.485 875.436 300.966 876.601 302.639 877.766 304.469 878.931 306.426 880.096 308.482 881.262 310.616 882.427 312.805 883.592 315.032 884.757 317.281 885.922 319.539 887.087 321.795 888.252 324.037 889.418 326.258 890.583 328.45 891.748 330.607 892.913 332.724 894.078 334.796 895.243 336.821 896.408 338.795 897.574 340.716 898.739 342.583 899.904 344.395 901.069 346.151 902.234 347.85 903.399 349.493 904.565 351.08 905.73 352.61 906.895 354.086 908.06 355.508 909.225 356.876 910.39 358.192 911.555 359.457 912.721 360.673 913.886 361.839 915.051 362.959 916.216 364.033 917.381 365.062 918.546 366.048 919.711 366.993 920.877 367.898 922.042 368.763 923.207 369.592 924.372 370.384 925.537 371.142 926.702 371.866 927.867 372.558 929.033 373.22 930.198 373.852 931.363 374.455 932.528 375.031 933.693 375.581 934.858 376.106 936.024 376.607 937.189 377.085 938.354 377.541 939.519 377.976 940.684 378.391 941.849 378.786 943.014 379.163 944.18 379.523 945.345 379.866 946.51 380.192 947.675 380.504 948.84 380.8 950.005 381.083 951.17 381.352 952.336 381.609 953.501 381.854 954.666 382.086 955.831 382.308 956.996 382.519 958.161 382.721 959.326 382.912 960.492 383.095 961.657 383.268 962.822 383.434 963.987 383.591 965.152 383.741 966.317 383.884 967.483 384.02 968.648 384.149 969.813 384.272 969.813 386.691 969.813 386.691 968.648 386.691 967.483 386.691 966.317 386.691 965.152 386.691 963.987 386.691 962.822 386.691 961.657 386.691 960.492 386.691 959.326 386.691 958.161 386.691 956.996 386.691 955.831 386.691 954.666 386.691 953.501 386.691 952.336 386.691 951.17 386.691 950.005 386.691 948.84 386.691 947.675 386.691 946.51 386.691 945.345 386.691 944.18 386.691 943.014 386.691 941.849 386.691 940.684 386.691 939.519 386.691 938.354 386.691 937.189 386.691 936.024 386.691 934.858 386.691 933.693 386.691 932.528 386.691 931.363 386.691 930.198 386.691 929.033 386.691 927.867 386.691 926.702 386.691 925.537 386.691 924.372 386.691 923.207 386.691 922.042 386.691 920.877 386.691 919.711 386.691 918.546 386.691 917.381 386.691 916.216 386.691 915.051 386.691 913.886 386.691 912.721 386.691 911.555 386.691 910.39 386.691 909.225 386.691 908.06 386.691 906.895 386.691 905.73 386.691 904.565 386.691 903.399 386.691 902.234 386.691 901.069 386.691 899.904 386.691 898.739 386.691 897.574 386.691 896.408 386.691 895.243 386.691 894.078 386.691 892.913 386.691 891.748 386.691 890.583 386.691 889.418 386.691 888.252 386.691 887.087 386.691 885.922 386.691 884.757 386.691 883.592 386.691 882.427 386.691 881.262 386.691 880.096 386.691 878.931 386.691 877.766 386.691 876.601 386.691 875.436 386.691 874.271 386.691 873.106 386.691 871.94 386.691 870.775 386.691 869.61 386.691 868.445 386.691 867.28 386.691 866.115 386.691 864.949 386.691 863.784 386.691 862.619 386.691 861.454 386.691 860.289 386.691 859.124 386.691 857.959 386.691 856.793 386.691 855.628 386.691 854.463 386.691 853.298 386.691 853.298 386.691 853.298 386.691"/><polygon class="cls-55" points="853.298 386.691 853.298 386.691 854.463 369.923 855.628 355.568 856.793 343.358 857.959 333.049 859.124 324.425 860.289 317.291 861.454 311.473 862.619 306.815 863.784 303.176 864.949 300.432 866.115 298.47 867.28 297.191 868.445 296.506 869.61 296.334 870.775 296.606 871.94 297.258 873.106 298.234 874.271 299.485 875.436 300.966 876.601 302.639 877.766 304.469 878.931 306.426 880.096 308.482 881.262 310.616 882.427 312.805 883.592 315.032 884.757 317.281 885.922 319.539 887.087 321.795 888.252 324.037 889.418 326.258 890.583 328.45 891.748 330.607 892.913 332.724 894.078 334.796 895.243 336.821 896.408 338.795 897.574 340.716 898.739 342.583 899.904 344.395 901.069 346.151 902.234 347.85 903.399 349.493 904.565 351.08 905.73 352.61 906.895 354.086 908.06 355.508 909.225 356.876 910.39 358.192 911.555 359.457 912.721 360.673 913.886 361.839 915.051 362.959 916.216 364.033 917.381 365.062 918.546 366.048 919.711 366.993 920.877 367.898 922.042 368.763 923.207 369.592 924.372 370.384 925.537 371.142 926.702 371.866 927.867 372.558 929.033 373.22 930.198 373.852 931.363 374.455 932.528 375.031 933.693 375.581 934.858 376.106 936.024 376.607 937.189 377.085 938.354 377.541 939.519 377.976 940.684 378.391 941.849 378.786 943.014 379.163 944.18 379.523 945.345 379.866 946.51 380.192 947.675 380.504 948.84 380.8 950.005 381.083 951.17 381.352 952.336 381.609 953.501 381.854 954.666 382.086 955.831 382.308 956.996 382.519 958.161 382.721 959.326 382.912 960.492 383.095 961.657 383.268 962.822 383.434 963.987 383.591 965.152 383.741 966.317 383.884 967.483 384.02 968.648 384.149 969.813 384.272 969.813 386.691 969.813 386.691 968.648 386.691 967.483 386.691 966.317 386.691 965.152 386.691 963.987 386.691 962.822 386.691 961.657 386.691 960.492 386.691 959.326 386.691 958.161 386.691 956.996 386.691 955.831 386.691 954.666 386.691 953.501 386.691 952.336 386.691 951.17 386.691 950.005 386.691 948.84 386.691 947.675 386.691 946.51 386.691 945.345 386.691 944.18 386.691 943.014 386.691 941.849 386.691 940.684 386.691 939.519 386.691 938.354 386.691 937.189 386.691 936.024 386.691 934.858 386.691 933.693 386.691 932.528 386.691 931.363 386.691 930.198 386.691 929.033 386.691 927.867 386.691 926.702 386.691 925.537 386.691 924.372 386.691 923.207 386.691 922.042 386.691 920.877 386.691 919.711 386.691 918.546 386.691 917.381 386.691 916.216 386.691 915.051 386.691 913.886 386.691 912.721 386.691 911.555 386.691 910.39 386.691 909.225 386.691 908.06 386.691 906.895 386.691 905.73 386.691 904.565 386.691 903.399 386.691 902.234 386.691 901.069 386.691 899.904 386.691 898.739 386.691 897.574 386.691 896.408 386.691 895.243 386.691 894.078 386.691 892.913 386.691 891.748 386.691 890.583 386.691 889.418 386.691 888.252 386.691 887.087 386.691 885.922 386.691 884.757 386.691 883.592 386.691 882.427 386.691 881.262 386.691 880.096 386.691 878.931 386.691 877.766 386.691 876.601 386.691 875.436 386.691 874.271 386.691 873.106 386.691 871.94 386.691 870.775 386.691 869.61 386.691 868.445 386.691 867.28 386.691 866.115 386.691 864.949 386.691 863.784 386.691 862.619 386.691 861.454 386.691 860.289 386.691 859.124 386.691 857.959 386.691 856.793 386.691 855.628 386.691 854.463 386.691 853.298 386.691 853.298 386.691 853.298 386.691"/><g class="cls-56"><polyline class="cls-57" points="853.298 386.691 854.463 369.923 855.628 355.568 856.793 343.358 857.959 333.049 859.124 324.425 860.289 317.291 861.454 311.473 862.619 306.815 863.784 303.176 864.949 300.432 866.115 298.47 867.28 297.191 868.445 296.506 869.61 296.334 870.775 296.606 871.94 297.258 873.106 298.234 874.271 299.485 875.436 300.966 876.601 302.639 877.766 304.469 878.931 306.426 880.096 308.482 881.262 310.616 882.427 312.805 883.592 315.032 884.757 317.281 885.922 319.539 887.087 321.795 888.252 324.037 889.418 326.258 890.583 328.45 891.748 330.607 892.913 332.724 894.078 334.796 895.243 336.821 896.408 338.795 897.574 340.716 898.739 342.583 899.904 344.395 901.069 346.151 902.234 347.85 903.399 349.493 904.565 351.08 905.73 352.61 906.895 354.086 908.06 355.508 909.225 356.876 910.39 358.192 911.555 359.457 912.721 360.673 913.886 361.839 915.051 362.959 916.216 364.033 917.381 365.062 918.546 366.048 919.711 366.993 920.877 367.898 922.042 368.764 923.207 369.592 924.372 370.384 925.537 371.142 926.702 371.866 927.867 372.559 929.033 373.22 930.198 373.852 931.363 374.455 932.528 375.031 933.693 375.581 934.858 376.106 936.024 376.607 937.189 377.085 938.354 377.541 939.519 377.976 940.684 378.391 941.849 378.786 943.014 379.164 944.18 379.523 945.345 379.866 946.51 380.192 947.675 380.504 948.84 380.8 950.005 381.083 951.17 381.352 952.336 381.609 953.501 381.854 954.666 382.086 955.831 382.308 956.996 382.519 958.161 382.721 959.326 382.912 960.492 383.095 961.657 383.268 962.822 383.434 963.987 383.591 965.152 383.741 966.317 383.884 967.483 384.02 968.648 384.149 969.813 384.272"/></g><g class="cls-58"><line class="cls-59" x1="853.298" y1="386.6913" x2="853.298" y2="389.1386"/><line class="cls-59" x1="882.4267" y1="386.6913" x2="882.4267" y2="389.1386"/><line class="cls-59" x1="911.5554" y1="386.6913" x2="911.5554" y2="389.1386"/><line class="cls-59" x1="940.6841" y1="386.6913" x2="940.6841" y2="389.1386"/><line class="cls-59" x1="969.8128" y1="386.6913" x2="969.8128" y2="389.1386"/><polyline class="cls-60" points="853.298 386.691 969.813 386.691 979.156 386.691"/><polygon points="974.948 384.733 979.156 386.691 974.948 388.649 974.948 384.733 974.948 384.733"/><polygon class="cls-60" points="974.948 384.733 979.156 386.691 974.948 388.649 974.948 384.733 974.948 384.733"/><line class="cls-59" x1="853.298" y1="386.6913" x2="850.6683" y2="386.6913"/><line class="cls-59" x1="853.298" y1="350.5467" x2="850.6683" y2="350.5467"/><line class="cls-59" x1="853.298" y1="314.4022" x2="850.6683" y2="314.4022"/><line class="cls-59" x1="853.298" y1="278.2577" x2="850.6683" y2="278.2577"/><polyline class="cls-60" points="853.298 386.691 853.298 278.258 853.298 269.563"/><polygon points="851.194 273.479 853.298 269.563 855.402 273.479 851.194 273.479 851.194 273.479"/><polygon class="cls-60" points="851.194 273.479 853.298 269.563 855.402 273.479 851.194 273.479 851.194 273.479"/></g><g class="cls-56"><path d="M925.4632,394.2862a1.4965,1.4965,0,0,0,1.0184-.3926,1.2756,1.2756,0,0,0,0-1.8956,1.5173,1.5173,0,0,0-2.0369,0,1.2756,1.2756,0,0,0,0,1.8956,1.4965,1.4965,0,0,0,1.0185.3926Z" transform="translate(-71 -22.8262)"/><path class="cls-61" d="M925.4632,394.2862a1.4965,1.4965,0,0,0,1.0184-.3926,1.2756,1.2756,0,0,0,0-1.8956,1.5173,1.5173,0,0,0-2.0369,0,1.2756,1.2756,0,0,0,0,1.8956,1.4965,1.4965,0,0,0,1.0185.3926Z" transform="translate(-71 -22.8262)"/><path d="M927.7934,369.8891a1.4966,1.4966,0,0,0,1.0185-.3927,1.2756,1.2756,0,0,0,0-1.8956,1.5173,1.5173,0,0,0-2.0369,0,1.2756,1.2756,0,0,0,0,1.8956,1.4966,1.4966,0,0,0,1.0184.3927Z" transform="translate(-71 -22.8262)"/><path class="cls-61" d="M927.7934,369.8891a1.4966,1.4966,0,0,0,1.0185-.3927,1.2756,1.2756,0,0,0,0-1.8956,1.5173,1.5173,0,0,0-2.0369,0,1.2756,1.2756,0,0,0,0,1.8956,1.4966,1.4966,0,0,0,1.0184.3927Z" transform="translate(-71 -22.8262)"/><path d="M930.1237,347.3024a1.4965,1.4965,0,0,0,1.0185-.3926,1.2756,1.2756,0,0,0,0-1.8956,1.517,1.517,0,0,0-2.0369,0,1.2756,1.2756,0,0,0,0,1.8956,1.4965,1.4965,0,0,0,1.0184.3926Z" transform="translate(-71 -22.8262)"/><path class="cls-61" d="M930.1237,347.3024a1.4965,1.4965,0,0,0,1.0185-.3926,1.2756,1.2756,0,0,0,0-1.8956,1.517,1.517,0,0,0-2.0369,0,1.2756,1.2756,0,0,0,0,1.8956,1.4965,1.4965,0,0,0,1.0184.3926Z" transform="translate(-71 -22.8262)"/><path d="M932.454,334.24a1.4966,1.4966,0,0,0,1.0185-.3927,1.2756,1.2756,0,0,0,0-1.8956,1.5173,1.5173,0,0,0-2.0369,0,1.2756,1.2756,0,0,0,0,1.8956,1.4966,1.4966,0,0,0,1.0184.3927Z" transform="translate(-71 -22.8262)"/><path class="cls-61" d="M932.454,334.24a1.4966,1.4966,0,0,0,1.0185-.3927,1.2756,1.2756,0,0,0,0-1.8956,1.5173,1.5173,0,0,0-2.0369,0,1.2756,1.2756,0,0,0,0,1.8956,1.4966,1.4966,0,0,0,1.0184.3927Z" transform="translate(-71 -22.8262)"/><path d="M934.7843,325.689a1.4965,1.4965,0,0,0,1.0185-.3926,1.2756,1.2756,0,0,0,0-1.8956,1.517,1.517,0,0,0-2.0369,0,1.2756,1.2756,0,0,0,0,1.8956,1.4965,1.4965,0,0,0,1.0184.3926Z" transform="translate(-71 -22.8262)"/><path class="cls-61" d="M934.7843,325.689a1.4965,1.4965,0,0,0,1.0185-.3926,1.2756,1.2756,0,0,0,0-1.8956,1.517,1.517,0,0,0-2.0369,0,1.2756,1.2756,0,0,0,0,1.8956,1.4965,1.4965,0,0,0,1.0184.3926Z" transform="translate(-71 -22.8262)"/><path d="M937.1146,320.6442a1.4965,1.4965,0,0,0,1.0185-.3926,1.2756,1.2756,0,0,0,0-1.8956,1.5173,1.5173,0,0,0-2.0369,0,1.2756,1.2756,0,0,0,0,1.8956,1.4963,1.4963,0,0,0,1.0184.3926Z" transform="translate(-71 -22.8262)"/><path class="cls-61" d="M937.1146,320.6442a1.4965,1.4965,0,0,0,1.0185-.3926,1.2756,1.2756,0,0,0,0-1.8956,1.5173,1.5173,0,0,0-2.0369,0,1.2756,1.2756,0,0,0,0,1.8956,1.4963,1.4963,0,0,0,1.0184.3926Z" transform="translate(-71 -22.8262)"/><path d="M948.7661,329.024a1.4965,1.4965,0,0,0,1.0185-.3926,1.2756,1.2756,0,0,0,0-1.8956,1.5174,1.5174,0,0,0-2.037,0,1.2758,1.2758,0,0,0,0,1.8956,1.4965,1.4965,0,0,0,1.0185.3926Z" transform="translate(-71 -22.8262)"/><path class="cls-61" d="M948.7661,329.024a1.4965,1.4965,0,0,0,1.0185-.3926,1.2756,1.2756,0,0,0,0-1.8956,1.5174,1.5174,0,0,0-2.037,0,1.2758,1.2758,0,0,0,0,1.8956,1.4965,1.4965,0,0,0,1.0185.3926Z" transform="translate(-71 -22.8262)"/><path d="M966.2433,362.605a1.4965,1.4965,0,0,0,1.0185-.3926,1.2756,1.2756,0,0,0,0-1.8956,1.5173,1.5173,0,0,0-2.0369,0,1.2756,1.2756,0,0,0,0,1.8956,1.4965,1.4965,0,0,0,1.0184.3926Z" transform="translate(-71 -22.8262)"/><path class="cls-61" d="M966.2433,362.605a1.4965,1.4965,0,0,0,1.0185-.3926,1.2756,1.2756,0,0,0,0-1.8956,1.5173,1.5173,0,0,0-2.0369,0,1.2756,1.2756,0,0,0,0,1.8956,1.4965,1.4965,0,0,0,1.0184.3926Z" transform="translate(-71 -22.8262)"/><path d="M983.7206,384.7947a1.4966,1.4966,0,0,0,1.0184-.3927,1.2756,1.2756,0,0,0,0-1.8956,1.5173,1.5173,0,0,0-2.0369,0,1.2756,1.2756,0,0,0,0,1.8956,1.4966,1.4966,0,0,0,1.0185.3927Z" transform="translate(-71 -22.8262)"/><path class="cls-61" d="M983.7206,384.7947a1.4966,1.4966,0,0,0,1.0184-.3927,1.2756,1.2756,0,0,0,0-1.8956,1.5173,1.5173,0,0,0-2.0369,0,1.2756,1.2756,0,0,0,0,1.8956,1.4966,1.4966,0,0,0,1.0185.3927Z" transform="translate(-71 -22.8262)"/><path d="M1001.1978,398.2889a1.4965,1.4965,0,0,0,1.0185-.3926,1.2758,1.2758,0,0,0,0-1.8956,1.5171,1.5171,0,0,0-2.037,0,1.2756,1.2756,0,0,0,0,1.8956,1.4965,1.4965,0,0,0,1.0185.3926Z" transform="translate(-71 -22.8262)"/><path class="cls-61" d="M1001.1978,398.2889a1.4965,1.4965,0,0,0,1.0185-.3926,1.2758,1.2758,0,0,0,0-1.8956,1.5171,1.5171,0,0,0-2.037,0,1.2756,1.2756,0,0,0,0,1.8956,1.4965,1.4965,0,0,0,1.0185.3926Z" transform="translate(-71 -22.8262)"/><path d="M1018.675,404.6633a1.4965,1.4965,0,0,0,1.0185-.3926,1.2758,1.2758,0,0,0,0-1.8956,1.5174,1.5174,0,0,0-2.037,0,1.2758,1.2758,0,0,0,0,1.8956,1.4965,1.4965,0,0,0,1.0185.3926Z" transform="translate(-71 -22.8262)"/><path class="cls-61" d="M1018.675,404.6633a1.4965,1.4965,0,0,0,1.0185-.3926,1.2758,1.2758,0,0,0,0-1.8956,1.5174,1.5174,0,0,0-2.037,0,1.2758,1.2758,0,0,0,0,1.8956,1.4965,1.4965,0,0,0,1.0185.3926Z" transform="translate(-71 -22.8262)"/><path d="M1036.1522,407.96a1.4966,1.4966,0,0,0,1.0185-.3927,1.2756,1.2756,0,0,0,0-1.8956,1.5173,1.5173,0,0,0-2.0369,0,1.2756,1.2756,0,0,0,0,1.8956,1.4964,1.4964,0,0,0,1.0184.3927Z" transform="translate(-71 -22.8262)"/><path class="cls-61" d="M1036.1522,407.96a1.4966,1.4966,0,0,0,1.0185-.3927,1.2756,1.2756,0,0,0,0-1.8956,1.5173,1.5173,0,0,0-2.0369,0,1.2756,1.2756,0,0,0,0,1.8956,1.4964,1.4964,0,0,0,1.0184.3927Z" transform="translate(-71 -22.8262)"/><path d="M940.61,322.9085a1.4965,1.4965,0,0,0,1.0185-.3926,1.2758,1.2758,0,0,0,0-1.8956,1.5171,1.5171,0,0,0-2.037,0,1.2756,1.2756,0,0,0,0,1.8956,1.4965,1.4965,0,0,0,1.0185.3926Z" transform="translate(-71 -22.8262)"/><path class="cls-61" d="M940.61,322.9085a1.4965,1.4965,0,0,0,1.0185-.3926,1.2758,1.2758,0,0,0,0-1.8956,1.5171,1.5171,0,0,0-2.037,0,1.2756,1.2756,0,0,0,0,1.8956,1.4965,1.4965,0,0,0,1.0185.3926Z" transform="translate(-71 -22.8262)"/></g></g></g><text class="cls-17" transform="translate(844.0034 372.5781) rotate(-90)">Concentration</text><text class="cls-17" transform="translate(897.8925 404.2213)"><tspan class="cls-50">T</tspan><tspan x="6.8848" y="0">ime</tspan></text><rect class="cls-18" x="819.3529" y="236.8059" width="180.1471" height="170.8679" rx="12"/><text class="cls-17" transform="translate(884.8243 284.3317)">AUC, C</text><text class="cls-62" transform="translate(925.4943 288.3278) scale(0.583)">max</text><text class="cls-17" transform="translate(938.6691 284.3317)">,<tspan class="cls-24" x="3.334" y="0"> </tspan><tspan x="6.4512" y="0">T</tspan></text><text class="cls-63" transform="translate(952.4503 288.3278) scale(0.583)">max</text><text class="cls-17" transform="translate(965.6671 284.3317)">, t</text><text class="cls-17" transform="translate(977.4171 288.3278) scale(0.583)"><tspan class="cls-64">1/</tspan><tspan x="16.0086" y="0">2</tspan></text><text class="cls-17" transform="translate(990.6407 284.3317)">,<tspan x="-99.8857" y="18">CL/</tspan><tspan class="cls-35" x="-81.2119" y="18">F</tspan><tspan x="-75.2119" y="18">, V</tspan></text><text class="cls-17" transform="translate(930.1007 306.3278) scale(0.583)">z</text><text class="cls-17" transform="translate(933.5988 302.3317)">/<tspan class="cls-35" x="3.334" y="0">F</tspan><tspan x="9.334" y="0">, M</tspan><tspan class="cls-24" x="25.998" y="0">R</tspan><tspan class="cls-35" x="34.4473" y="0">T</tspan><tspan x="40.4473" y="0">, F</tspan></text><text class="cls-20" transform="translate(478.0291 12.0142)">Sequence<tspan x="-15.9482" y="16.7998">Representation</tspan></text><text class="cls-20" transform="translate(479.4677 137.6256)">Molecular<tspan x="-17.1309" y="16.7998">Representation</tspan></text><text class="cls-20" transform="translate(470.1249 423.014)">Substructure<tspan x="-7.7891" y="16.7998">Representation</tspan></text><text class="cls-20" transform="translate(592.473 236.9786)">Q</text><text class="cls-20" transform="translate(591.6898 342.9788)">K, V</text><line class="cls-18" x1="518" y1="185.6738" x2="715.9395" y2="185.6738"/><polygon points="723 185.674 713.051 189.739 715.412 185.674 713.051 181.609 723 185.674"/><text class="cls-20" transform="translate(615.41 179.9783)">FC</text><rect class="cls-65" x="345.5" y="328.6738" width="122" height="72" rx="12"/><rect class="cls-65" x="342.5" y="331.6738" width="122" height="72" rx="12"/><rect class="cls-65" x="339.5" y="334.6738" width="122" height="72" rx="12"/><text class="cls-20" transform="translate(362.0008 358.2021)">Substructure<tspan x="-7.7861" y="16.7998">Graph Encoder</tspan><tspan x="-6.019" y="33.6001">(5×GIN layers)</tspan></text></svg>